La Zona *2007* [DVD5] [PAL] [ESP, POL]

General information:
Country: Spain, Argentina, Mexico 
Release: 3 September 2007 (Venice Film Festival)
Genre: Drama, Thriller 
Director: Rodrigo Pla
Screenplay: Rodrigo Pla, Laura Santullo
Original Music: Fernando Velazquez 
Cinematography by: Emiliano Villanueva 
Duration: 1h 30mn
Language: Spanish, Polish
Subtitles: Polish
Rating: 7.1/10 - 2252 votes 

Cast:
Daniel Giménez Cacho  ...  Daniel  
Maribel Verdú  ...  Mariana  
Alan Chávez  ...  Miguel  
Daniel Tovar  ...  Alejandro  
Carlos Bardem  ...  Gerardo  
Marina de Tavira  ...  Andrea  
Mario Zaragoza  ...  Comandante Rigoberto  
Andrés Montiel  ...  Diego  
Blanca Guerra  ...  Lucía  
Enrique Arreola  ...  Oficial Iván  
Gerardo Taracena  ...  Mario  

Plot:
Residents of an enclosed neighborhood in the middle of Mexico DF are shocked by a violent crime, and for one resident in particular, young Alejandro, the drama is ratcheted up when he encounters the lone kid who escaped the event and is hiding out within the neighborhood's borders. 

Specifications:
General
Format                           : MPEG-PS
Overall bit rate                 : 6 508 Kbps

Video
Format                           : MPEG Video
Format version                   : Version 2
Format profile                   : Main@Main
Format settings, BVOP            : Yes
Format settings, Matrix          : Default
Format settings, GOP             : M=2, N=13
Bit rate mode                    : Variable
Bit rate                         : 5 547 Kbps
Nominal bit rate                 : 8 500 Kbps
Width                            : 720 pixels
Height                           : 576 pixels
Display aspect ratio             : 2.35:1
Frame rate                       : 25.000 fps
Standard                         : PAL

Audio 1
Format                           : AC-3
Format/Info                      : Audio Coding 3
Mode extension                   : CM (complete main)
Bit rate mode                    : Constant
Bit rate                         : 384 Kbps
Channel(s)                       : 6 channels
Channel positions                : Front: L C R, Side: L R, LFE
Sampling rate                    : 48.0 KHz
Stream size                      : 60.4 MiB (6%)

Audio 2
Format                           : AC-3
Format/Info                      : Audio Coding 3
Mode extension                   : CM (complete main)
Bit rate mode                    : Constant
Bit rate                         : 448 Kbps
Channel(s)                       : 6 channels
Channel positions                : Front: L C R, Side: L R, LFE
Sampling rate                    : 48.0 KHz
Stream size                      : 70.5 MiB (7%)

Text
Format                           : RLE
Format/Info                      : Run-length encoding
